<svg width="110" height="40" viewBox="0 0 110 40" fill="none" xmlns="http://www.w3.org/2000/svg">
<path d="M56.7151 15.5879H53.4863V13.8528H62.2789V15.5879H59.0502V23.0541H56.7151V15.5879Z" fill="#FDFDFD"/>
<path d="M69.9823 21.0824H65.2978L64.4041 23.0541H62.0113L66.5085 13.8528H68.8148L73.3264 23.0541H70.876L69.9823 21.0824ZM69.2472 19.4656L67.6473 15.9428L66.0473 19.4656H69.2472Z" fill="#FDFDFD"/>
<path d="M80.5179 23.0541L78.0819 19.8599L75.6892 23.0541H73.0082L76.7414 18.3746L73.1955 13.8528H75.8477L78.1684 16.8366L80.4458 13.8528H82.9683L79.4513 18.2957L83.2133 23.0541H80.5179Z" fill="#FDFDFD"/>
<path d="M91.2118 18.3088H93.3451V22.0419C92.7974 22.4187 92.1631 22.7079 91.4424 22.9095C90.7217 23.111 89.9962 23.2118 89.2659 23.2118C88.2185 23.2118 87.2768 23.0102 86.4407 22.6071C85.6047 22.1953 84.9465 21.6301 84.466 20.9115C83.9951 20.1841 83.7597 19.3648 83.7597 18.4534C83.7597 17.5421 83.9951 16.7271 84.466 16.0085C84.9465 15.2812 85.6095 14.716 86.4552 14.3129C87.3008 13.901 88.2521 13.6951 89.3091 13.6951C90.1932 13.6951 90.9956 13.8309 91.7163 14.1026C92.437 14.3742 93.0424 14.7685 93.5325 15.2856L92.0334 16.5475C91.3127 15.8552 90.4431 15.509 89.4245 15.509C88.7806 15.509 88.2089 15.6317 87.7092 15.8771C87.2095 16.1224 86.8203 16.4686 86.5416 16.9155C86.263 17.3624 86.1236 17.8751 86.1236 18.4534C86.1236 19.023 86.263 19.5313 86.5416 19.9782C86.8203 20.4251 87.2047 20.7757 87.6948 21.0298C88.1945 21.2752 88.7614 21.3978 89.3956 21.3978C90.0683 21.3978 90.6737 21.2664 91.2118 21.0035V18.3088Z" fill="#FDFDFD"/>
<path d="M95.8231 13.8528H98.1581V23.0541H95.8231V13.8528Z" fill="#FDFDFD"/>
<path d="M107.679 18.3088H109.813V22.0419C109.265 22.4187 108.631 22.7079 107.91 22.9095C107.189 23.111 106.464 23.2118 105.734 23.2118C104.686 23.2118 103.744 23.0102 102.908 22.6071C102.072 22.1953 101.414 21.6301 100.934 20.9115C100.463 20.1841 100.227 19.3648 100.227 18.4534C100.227 17.5421 100.463 16.7271 100.934 16.0085C101.414 15.2812 102.077 14.716 102.923 14.3129C103.768 13.901 104.72 13.6951 105.777 13.6951C106.661 13.6951 107.463 13.8309 108.184 14.1026C108.905 14.3742 109.51 14.7685 110 15.2856L108.501 16.5475C107.78 15.8552 106.911 15.509 105.892 15.509C105.248 15.509 104.676 15.6317 104.177 15.8771C103.677 16.1224 103.288 16.4686 103.009 16.9155C102.731 17.3624 102.591 17.8751 102.591 18.4534C102.591 19.023 102.731 19.5313 103.009 19.9782C103.288 20.4251 103.672 20.7757 104.162 21.0298C104.662 21.2752 105.229 21.3978 105.863 21.3978C106.536 21.3978 107.141 21.2664 107.679 21.0035V18.3088Z" fill="#FDFDFD"/>
<path d="M11.7569 27.8174L8.54848 23.6148C7.41 25.3158 6.49662 29.2703 7.40999 32.1201C8.69282 36.1225 13.1024 38.1002 14.5514 38.9243C17.3666 40.5253 20.2783 39.9916 21.3823 39.5246C24.0388 38.0571 30.1176 34.7017 33.1812 33.0206C36.2447 31.3396 37.2176 28.8514 37.3211 27.8174V13.4084L37.1141 16.2102L34.5267 22.2139L30.0762 27.217L21.3823 30.2189C17.4261 31.042 15.3161 30.5458 11.7569 27.8174Z" fill="url(#paint0_linear)"/>
<path d="M26.4536 19.4121C18.4842 28.4177 8.54834 23.5146 8.54834 23.5146C10.9288 29.4183 18.605 33.821 29.0411 28.3176C38.149 23.5146 37.321 15.1949 37.321 13.6085C37.321 10.7267 35.458 8.67211 34.5265 8.00503C33.595 7.33794 26.4536 3.60229 26.4536 3.60229C26.4536 3.60229 34.423 10.4065 26.4536 19.4121Z" fill="url(#paint1_linear)"/>
<path d="M25.5829 12.1829L28.7717 16.1101C29.9102 14.409 30.8432 10.7299 29.9298 7.88019C28.647 3.87771 24.2374 1.90001 22.7884 1.07597C19.9732 -0.525019 17.0615 0.00864601 15.9575 0.475601C13.301 1.94318 7.22218 5.29859 4.15862 6.97964C1.09506 8.66068 0.122169 11.1489 0.018671 12.1829V26.5918L0.225668 23.7901L2.81314 17.7863L7.26358 12.7832L15.9575 9.78137L25.5829 12.1829Z" fill="url(#paint2_linear)"/>
<path d="M10.8873 20.588C18.8567 11.5824 28.7729 16.11 28.7729 16.11C26.3925 10.2064 18.7359 6.17909 8.2998 11.6825C-0.808084 16.4855 0.0199051 24.8053 0.0199051 26.3916C0.0199051 29.2734 1.88288 31.328 2.81437 31.9951C3.74586 32.6622 10.6607 36.5227 10.6607 36.5227C10.6607 36.5227 2.91787 29.5936 10.8873 20.588Z" fill="url(#paint3_linear)"/>
<defs>
<linearGradient id="paint0_linear" x1="37.8797" y1="29.0181" x2="12.434" y2="36.0509" gradientUnits="userSpaceOnUse">
<stop stop-color="#B4D57C"/>
<stop offset="1" stop-color="#86BE26"/>
</linearGradient>
<linearGradient id="paint1_linear" x1="38.8111" y1="6.00378" x2="14.0391" y2="35.9485" gradientUnits="userSpaceOnUse">
<stop offset="0.376514" stop-color="#C4E58B"/>
<stop offset="1" stop-color="#B4D57C"/>
</linearGradient>
<linearGradient id="paint2_linear" x1="24.3213" y1="6.10389" x2="-2.06249" y2="18.5853" gradientUnits="userSpaceOnUse">
<stop stop-color="#B4D57C"/>
<stop offset="0.684968" stop-color="#86BE26"/>
</linearGradient>
<linearGradient id="paint3_linear" x1="1.86329" y1="30.4189" x2="23.9246" y2="12.0803" gradientUnits="userSpaceOnUse">
<stop stop-color="#C4E58B"/>
<stop offset="0.876654" stop-color="#86BE26"/>
</linearGradient>
</defs>
</svg>
